<mxfile host="app.diagrams.net" modified="2022-05-19T15:08:33.648Z" agent="5.0 (Macintosh)" etag="-tiUZdsCGPoPPpMuBpcu" version="18.0.8" type="github">
  <diagram id="4uH-TWo-YKCdjjfprE0f" name="Page-1">
    <mxGraphModel dx="507" dy="745" grid="1" gridSize="10" guides="1" tooltips="1" connect="1" arrows="1" fold="1" page="1" pageScale="1" pageWidth="827" pageHeight="1169" math="0" shadow="0">
      <root>
        <mxCell id="0" />
        <mxCell id="1" parent="0" />
        <mxCell id="s8nGhP_Hl69faYibCUDG-12" style="edgeStyle=orthogonalEdgeStyle;rounded=0;orthogonalLoop=1;jettySize=auto;html=1;exitX=0;exitY=0.25;exitDx=0;exitDy=0;entryX=1;entryY=0.25;entryDx=0;entryDy=0;" edge="1" parent="1" source="s8nGhP_Hl69faYibCUDG-1" target="s8nGhP_Hl69faYibCUDG-4">
          <mxGeometry relative="1" as="geometry" />
        </mxCell>
        <mxCell id="s8nGhP_Hl69faYibCUDG-13" style="edgeStyle=orthogonalEdgeStyle;rounded=0;orthogonalLoop=1;jettySize=auto;html=1;exitX=0.75;exitY=0;exitDx=0;exitDy=0;entryX=0.75;entryY=1;entryDx=0;entryDy=0;" edge="1" parent="1" source="s8nGhP_Hl69faYibCUDG-1" target="s8nGhP_Hl69faYibCUDG-2">
          <mxGeometry relative="1" as="geometry" />
        </mxCell>
        <mxCell id="s8nGhP_Hl69faYibCUDG-1" value="&lt;div&gt;序列化&lt;/div&gt;&lt;div&gt;反序列化&lt;br&gt;&lt;/div&gt;" style="rounded=0;whiteSpace=wrap;html=1;fillColor=#f8cecc;strokeColor=#b85450;" vertex="1" parent="1">
          <mxGeometry x="560" y="440" width="120" height="60" as="geometry" />
        </mxCell>
        <mxCell id="s8nGhP_Hl69faYibCUDG-14" style="edgeStyle=orthogonalEdgeStyle;rounded=0;orthogonalLoop=1;jettySize=auto;html=1;exitX=0.75;exitY=0;exitDx=0;exitDy=0;entryX=0.75;entryY=1;entryDx=0;entryDy=0;" edge="1" parent="1" source="s8nGhP_Hl69faYibCUDG-2" target="s8nGhP_Hl69faYibCUDG-3">
          <mxGeometry relative="1" as="geometry" />
        </mxCell>
        <mxCell id="s8nGhP_Hl69faYibCUDG-16" style="edgeStyle=orthogonalEdgeStyle;rounded=0;orthogonalLoop=1;jettySize=auto;html=1;exitX=0.25;exitY=1;exitDx=0;exitDy=0;entryX=0.25;entryY=0;entryDx=0;entryDy=0;" edge="1" parent="1" source="s8nGhP_Hl69faYibCUDG-2" target="s8nGhP_Hl69faYibCUDG-1">
          <mxGeometry relative="1" as="geometry" />
        </mxCell>
        <mxCell id="s8nGhP_Hl69faYibCUDG-2" value="&lt;div&gt;服务存根&lt;/div&gt;&lt;div&gt;Skeleton&lt;br&gt;&lt;/div&gt;" style="rounded=0;whiteSpace=wrap;html=1;fillColor=#f8cecc;strokeColor=#b85450;" vertex="1" parent="1">
          <mxGeometry x="560" y="320" width="120" height="60" as="geometry" />
        </mxCell>
        <mxCell id="s8nGhP_Hl69faYibCUDG-15" style="edgeStyle=orthogonalEdgeStyle;rounded=0;orthogonalLoop=1;jettySize=auto;html=1;exitX=0.25;exitY=1;exitDx=0;exitDy=0;entryX=0.25;entryY=0;entryDx=0;entryDy=0;" edge="1" parent="1" source="s8nGhP_Hl69faYibCUDG-3" target="s8nGhP_Hl69faYibCUDG-2">
          <mxGeometry relative="1" as="geometry" />
        </mxCell>
        <mxCell id="s8nGhP_Hl69faYibCUDG-3" value="服务实现" style="rounded=0;whiteSpace=wrap;html=1;fillColor=#f8cecc;strokeColor=#b85450;" vertex="1" parent="1">
          <mxGeometry x="560" y="200" width="120" height="60" as="geometry" />
        </mxCell>
        <mxCell id="s8nGhP_Hl69faYibCUDG-10" style="edgeStyle=orthogonalEdgeStyle;rounded=0;orthogonalLoop=1;jettySize=auto;html=1;exitX=0.75;exitY=0;exitDx=0;exitDy=0;entryX=0.75;entryY=1;entryDx=0;entryDy=0;" edge="1" parent="1" source="s8nGhP_Hl69faYibCUDG-4" target="s8nGhP_Hl69faYibCUDG-5">
          <mxGeometry relative="1" as="geometry" />
        </mxCell>
        <mxCell id="s8nGhP_Hl69faYibCUDG-11" style="edgeStyle=orthogonalEdgeStyle;rounded=0;orthogonalLoop=1;jettySize=auto;html=1;exitX=1;exitY=0.75;exitDx=0;exitDy=0;entryX=0;entryY=0.75;entryDx=0;entryDy=0;" edge="1" parent="1" source="s8nGhP_Hl69faYibCUDG-4" target="s8nGhP_Hl69faYibCUDG-1">
          <mxGeometry relative="1" as="geometry" />
        </mxCell>
        <mxCell id="s8nGhP_Hl69faYibCUDG-4" value="&lt;div&gt;序列化&lt;/div&gt;&lt;div&gt;反序列化&lt;br&gt;&lt;/div&gt;" style="rounded=0;whiteSpace=wrap;html=1;fillColor=#f8cecc;strokeColor=#b85450;" vertex="1" parent="1">
          <mxGeometry x="320" y="440" width="120" height="60" as="geometry" />
        </mxCell>
        <mxCell id="s8nGhP_Hl69faYibCUDG-8" style="edgeStyle=orthogonalEdgeStyle;rounded=0;orthogonalLoop=1;jettySize=auto;html=1;exitX=0.75;exitY=0;exitDx=0;exitDy=0;entryX=0.75;entryY=1;entryDx=0;entryDy=0;" edge="1" parent="1" source="s8nGhP_Hl69faYibCUDG-5" target="s8nGhP_Hl69faYibCUDG-6">
          <mxGeometry relative="1" as="geometry" />
        </mxCell>
        <mxCell id="s8nGhP_Hl69faYibCUDG-9" style="edgeStyle=orthogonalEdgeStyle;rounded=0;orthogonalLoop=1;jettySize=auto;html=1;exitX=0.25;exitY=1;exitDx=0;exitDy=0;entryX=0.25;entryY=0;entryDx=0;entryDy=0;" edge="1" parent="1" source="s8nGhP_Hl69faYibCUDG-5" target="s8nGhP_Hl69faYibCUDG-4">
          <mxGeometry relative="1" as="geometry" />
        </mxCell>
        <mxCell id="s8nGhP_Hl69faYibCUDG-5" value="&lt;div&gt;代理存根&lt;/div&gt;&lt;div&gt;Stub&lt;/div&gt;" style="rounded=0;whiteSpace=wrap;html=1;fillColor=#f8cecc;strokeColor=#b85450;" vertex="1" parent="1">
          <mxGeometry x="320" y="320" width="120" height="60" as="geometry" />
        </mxCell>
        <mxCell id="s8nGhP_Hl69faYibCUDG-7" style="edgeStyle=orthogonalEdgeStyle;rounded=0;orthogonalLoop=1;jettySize=auto;html=1;exitX=0.25;exitY=1;exitDx=0;exitDy=0;entryX=0.25;entryY=0;entryDx=0;entryDy=0;" edge="1" parent="1" source="s8nGhP_Hl69faYibCUDG-6" target="s8nGhP_Hl69faYibCUDG-5">
          <mxGeometry relative="1" as="geometry" />
        </mxCell>
        <mxCell id="s8nGhP_Hl69faYibCUDG-6" value="本地调用" style="rounded=0;whiteSpace=wrap;html=1;fillColor=#f8cecc;strokeColor=#b85450;" vertex="1" parent="1">
          <mxGeometry x="320" y="200" width="120" height="60" as="geometry" />
        </mxCell>
      </root>
    </mxGraphModel>
  </diagram>
</mxfile>
